<svg xmlns="http://www.w3.org/2000/svg" xmlns:xlink="http://www.w3.org/1999/xlink" width="500" zoomAndPan="magnify" viewBox="0 0 375 374.999991" height="500" preserveAspectRatio="xMidYMid meet" version="1.0"><defs><g/><clipPath id="id1"><path d="M 11 11 L 364 11 L 364 364 L 11 364 Z M 11 11 " clip-rule="nonzero"/></clipPath><clipPath id="id2"><path d="M 189.855469 11.269531 L 363.804688 185.21875 L 185.082031 363.9375 L 11.136719 189.988281 Z M 189.855469 11.269531 " clip-rule="nonzero"/></clipPath><clipPath id="id3"><path d="M 80 80 L 295 80 L 295 295 L 80 295 Z M 80 80 " clip-rule="nonzero"/></clipPath><clipPath id="id4"><path d="M 182.785156 80.570312 L 294.683594 192.46875 L 192.328125 294.824219 L 80.429688 182.925781 Z M 182.785156 80.570312 " clip-rule="nonzero"/></clipPath><clipPath id="id5"><path d="M 296.832031 97.128906 L 352.621094 97.128906 L 352.621094 170.640625 L 296.832031 170.640625 Z M 296.832031 97.128906 " clip-rule="nonzero"/></clipPath><clipPath id="id6"><path d="M 236.398438 157 L 238 157 L 238 158 L 236.398438 158 Z M 236.398438 157 " clip-rule="nonzero"/></clipPath><clipPath id="id7"><path d="M 236.398438 156 L 237 156 L 237 158 L 236.398438 158 Z M 236.398438 156 " clip-rule="nonzero"/></clipPath><clipPath id="id8"><path d="M 236.398438 156 L 238 156 L 238 158 L 236.398438 158 Z M 236.398438 156 " clip-rule="nonzero"/></clipPath><clipPath id="id9"><path d="M 259.773438 126 L 343.554688 126 L 343.554688 230.625 L 259.773438 230.625 Z M 259.773438 126 " clip-rule="nonzero"/></clipPath></defs><g clip-path="url(#id1)"><g clip-path="url(#id2)"><path fill="#ffffff" d="M 189.855469 11.269531 L 363.804688 185.21875 L 185.082031 363.9375 L 11.136719 189.988281 Z M 189.855469 11.269531 " fill-opacity="1" fill-rule="nonzero"/></g></g><g clip-path="url(#id3)"><g clip-path="url(#id4)"><path fill="#bac3e9" d="M 182.785156 80.570312 L 294.683594 192.46875 L 192.328125 294.824219 L 80.429688 182.925781 Z M 182.785156 80.570312 " fill-opacity="1" fill-rule="nonzero"/></g></g><g clip-path="url(#id5)"><path fill="#231f20" d="M 303.859375 153 C 303.648438 152.65625 303.433594 152.308594 303.394531 151.671875 C 304.980469 152.878906 306.519531 153.78125 308.1875 154.441406 C 309.890625 155.195312 311.136719 156.488281 312.265625 157.917969 C 312.601562 158.410156 312.9375 158.898438 313.273438 159.390625 C 313.347656 159.675781 314.640625 161 314.582031 161.335938 C 311.828125 160.097656 309.980469 158.140625 308.207031 157.046875 C 306.5 155.988281 304.933594 154.75 303.859375 153 Z M 311.167969 156.171875 C 311.210938 156.121094 311.339844 156.085938 311.472656 156.164062 C 313.117188 156.882812 314.769531 157.589844 316.410156 158.324219 C 317.871094 158.984375 319.320312 159.675781 320.773438 160.355469 C 321.257812 160.6875 321.742188 161.019531 322.226562 161.355469 C 322.695312 161.675781 323.121094 162.046875 323.472656 162.496094 C 324.160156 163.371094 323.78125 164.296875 322.671875 164.476562 C 322.121094 164.566406 321.601562 164.4375 321.089844 164.265625 C 320.230469 163.96875 319.476562 163.464844 318.664062 163.0625 C 315.167969 161.328125 311.167969 156.171875 311.167969 156.171875 Z M 324.882812 166.25 C 325.554688 165.589844 326.085938 165.203125 327.039062 165.558594 C 327.4375 166.050781 324.796875 166.921875 324.882812 166.25 Z M 325.785156 163.726562 C 325.578125 163.421875 325.453125 163.023438 325.910156 162.789062 C 326.34375 162.570312 326.921875 162.34375 327.238281 162.753906 C 327.539062 163.144531 327.027344 163.484375 326.773438 163.785156 C 326.414062 163.996094 326.046875 164.121094 325.785156 163.726562 Z M 328.199219 165.328125 C 328.691406 165.101562 329.253906 164.730469 329.640625 165.269531 C 329.957031 165.710938 329.570312 166.242188 329.207031 166.523438 C 328.667969 166.945312 328.1875 166.609375 327.832031 166.214844 C 327.445312 165.785156 327.882812 165.566406 328.199219 165.328125 Z M 326.242188 159.9375 C 325.894531 160.652344 325.199219 160.839844 324.460938 160.851562 C 324.152344 160.859375 323.832031 160.839844 323.542969 160.75 C 322.660156 160.484375 321.792969 160.175781 320.917969 159.886719 C 316.640625 158.078125 312.449219 156.085938 308.238281 154.132812 C 306.996094 153.3125 305.648438 152.632812 304.59375 151.550781 C 304.199219 151.148438 303.757812 150.75 303.695312 150.03125 C 307.085938 151.203125 310.523438 151.339844 313.976562 151.234375 C 315.175781 151.199219 316.28125 151.28125 317.128906 152.257812 C 318.757812 153.679688 320.597656 154.769531 322.542969 155.699219 C 323.644531 156.421875 324.867188 156.984375 325.75 158.015625 C 326.226562 158.574219 326.609375 159.191406 326.242188 159.9375 Z M 328.300781 162.355469 C 328.109375 161.984375 328.316406 161.632812 328.484375 161.335938 C 329.015625 160.382812 329.820312 159.976562 330.824219 159.933594 C 331.222656 159.984375 331.824219 159.613281 332.046875 160.199219 C 332.3125 160.890625 331.648438 161.144531 331.28125 161.472656 C 330.664062 162.023438 329.929688 162.316406 329.171875 162.515625 C 328.886719 162.589844 328.515625 162.761719 328.300781 162.355469 Z M 330.929688 165.546875 C 330.421875 164.632812 331 164.308594 331.488281 164 C 331.835938 163.785156 332.347656 163.207031 332.683594 163.761719 C 333.171875 164.574219 332.6875 165.21875 332.140625 165.660156 C 331.738281 165.804688 331.398438 166.382812 330.929688 165.546875 Z M 334.335938 162.34375 C 333.804688 161.207031 334.5 160.484375 335.238281 159.820312 C 335.597656 159.664062 336.089844 159.136719 336.246094 159.714844 C 336.527344 160.75 336.03125 161.644531 335.207031 162.304688 C 334.929688 162.527344 334.542969 162.785156 334.335938 162.34375 Z M 333.269531 155.292969 C 333.160156 155.453125 333 155.757812 332.753906 155.496094 C 332.371094 155.085938 332.59375 154.667969 332.851562 154.242188 C 333.011719 154.117188 333.199219 153.765625 333.429688 154.058594 C 333.75 154.464844 333.519531 154.914062 333.269531 155.292969 Z M 335.246094 156.972656 C 334.730469 156.160156 334.800781 155.316406 335.347656 154.742188 C 335.707031 154.359375 336.445312 154.222656 336.785156 154.808594 C 337.289062 155.675781 336.738281 156.332031 336.261719 156.925781 C 335.949219 157.089844 335.601562 157.535156 335.246094 156.972656 Z M 335.925781 152.941406 C 335.722656 152.953125 335.492188 153.3125 335.226562 152.96875 C 335.039062 152.722656 335.355469 151.523438 335.640625 151.417969 C 335.910156 151.316406 336.222656 151.332031 336.460938 151.484375 C 336.726562 151.652344 336.589844 151.941406 336.523438 152.179688 C 336.441406 152.492188 336.210938 152.707031 335.925781 152.941406 Z M 334.855469 149.417969 C 334.773438 149.597656 334.550781 149.625 334.433594 149.484375 C 334.109375 149.109375 333.90625 148.410156 334.484375 148.226562 C 335.070312 148.125 335.0625 148.980469 334.855469 149.417969 Z M 333.800781 146.472656 C 333.621094 146.605469 333.484375 146.476562 333.414062 146.300781 C 333.3125 146.046875 333.164062 145.78125 333.433594 145.492188 C 333.652344 145.472656 333.75 145.65625 333.859375 145.804688 C 334.03125 146.035156 334.042969 146.289062 333.800781 146.472656 Z M 336.074219 148.988281 C 335.992188 148.679688 335.75 148.070312 336.078125 147.882812 C 336.472656 147.65625 336.761719 147.972656 336.894531 148.421875 C 337.03125 148.832031 337.335938 149.527344 336.839844 149.804688 C 336.390625 150.0625 336.285156 149.328125 336.074219 148.988281 Z M 332.507812 142.269531 C 332.257812 142.511719 331.855469 141.933594 331.722656 141.722656 C 331.695312 141.4375 331.175781 141.179688 331.519531 140.882812 C 331.734375 140.691406 332.132812 140.875 332.339844 141.121094 C 332.578125 141.410156 332.738281 142.050781 332.507812 142.269531 Z M 335.378906 145.339844 C 335.167969 145.121094 335.027344 144.902344 335.304688 144.679688 C 335.652344 144.402344 335.878906 144.722656 336.117188 144.886719 C 336.410156 145.089844 336.40625 145.589844 336.203125 145.769531 C 335.648438 146.265625 335.59375 145.472656 335.378906 145.339844 Z M 334.917969 143.3125 C 334.71875 143.546875 334.4375 143.496094 334.261719 143.277344 C 333.972656 142.917969 334.125 142.546875 334.3125 142.191406 C 334.546875 142.007812 334.675781 142.175781 334.785156 142.335938 C 334.992188 142.636719 335.226562 142.960938 334.917969 143.3125 Z M 333.3125 140.601562 C 333.171875 140.394531 333.324219 140.015625 333.519531 139.878906 C 333.691406 139.757812 333.890625 139.855469 334.050781 139.984375 C 334.1875 140.242188 334.246094 140.78125 334.101562 140.933594 C 333.941406 141.101562 333.410156 140.742188 333.3125 140.601562 Z M 332.886719 138.558594 C 332.992188 138.761719 333.054688 139.023438 332.824219 139.167969 C 332.570312 139.324219 332.40625 139.105469 332.289062 138.914062 C 332.113281 138.632812 331.472656 138.191406 332.058594 137.933594 C 332.472656 137.984375 332.722656 138.222656 332.886719 138.558594 Z M 330.285156 139.917969 C 330.066406 139.550781 329.71875 139.027344 330.105469 138.738281 C 330.40625 138.515625 330.859375 138.925781 330.976562 139.054688 C 331.378906 139.554688 331.441406 139.878906 331.121094 140.140625 C 330.777344 140.421875 330.472656 140.234375 330.285156 139.917969 Z M 332.695312 143.0625 C 332.808594 143.363281 332.820312 143.664062 332.492188 143.929688 C 332.328125 143.996094 332.152344 144.003906 332.050781 143.765625 C 331.917969 143.453125 332.050781 143.222656 332.300781 143.046875 C 332.433594 142.953125 332.597656 142.808594 332.695312 143.0625 Z M 330.433594 137.273438 C 329.710938 137.425781 328.976562 137.417969 328.277344 137.125 C 327.914062 136.976562 326.570312 136.457031 326.65625 136.027344 C 326.746094 135.578125 328.128906 135.65625 328.589844 135.675781 C 329.398438 135.707031 330.03125 136.09375 330.5625 136.59375 C 330.90625 137.019531 330.882812 137.179688 330.433594 137.273438 Z M 329.621094 140.988281 C 331.410156 141.941406 331.886719 144.285156 329.957031 145.550781 C 328.066406 146.554688 325.789062 146.960938 323.40625 146.730469 C 321.929688 146.585938 320.710938 145.753906 319.507812 144.980469 C 318.875 144.578125 318.976562 144.054688 319.667969 143.835938 C 321.617188 143.222656 323.414062 142.269531 325.222656 141.347656 C 326.886719 140.496094 328.058594 140.152344 329.621094 140.988281 Z M 314.796875 141.472656 C 311.824219 144.136719 308.941406 146.96875 304.582031 147.191406 C 305.769531 146.621094 306.976562 146.089844 308.113281 145.414062 C 309.226562 144.746094 310.332031 144.070312 311.429688 143.378906 C 312.519531 142.691406 313.597656 141.976562 314.679688 141.269531 C 314.71875 141.335938 314.757812 141.40625 314.796875 141.472656 Z M 322.917969 137.160156 C 323.574219 136.972656 324.265625 136.890625 324.925781 137.125 C 325.652344 137.386719 327.121094 137.78125 327.28125 138.625 C 327.429688 139.410156 326.042969 139.761719 325.523438 140.191406 C 325.394531 140.300781 325.253906 140.394531 325.109375 140.488281 C 323.175781 141.726562 321.066406 142.621094 319 143.601562 C 318.433594 143.867188 317.835938 143.824219 317.28125 143.539062 C 316.375 143.074219 315.453125 142.667969 314.296875 142.566406 C 314.460938 142.332031 314.507812 142.226562 314.585938 142.152344 C 316.933594 139.773438 319.691406 138.070312 322.917969 137.160156 Z M 306.78125 150.082031 C 305.859375 149.894531 304.96875 149.609375 304.265625 148.945312 C 303.664062 148.378906 303.722656 148.113281 304.496094 147.878906 C 304.980469 147.730469 305.472656 147.574219 305.972656 147.496094 C 308.417969 147.117188 310.546875 146.164062 312.234375 144.28125 C 313.273438 143.125 314.589844 142.953125 316.035156 143.488281 C 317.214844 143.925781 318.234375 144.632812 319.265625 145.328125 C 320.480469 146.148438 321.660156 147.027344 323.105469 147.433594 C 323.277344 147.480469 323.550781 147.441406 323.578125 147.695312 C 323.601562 147.921875 323.359375 148.003906 323.222656 148.132812 C 323.121094 148.230469 322.996094 148.300781 322.882812 148.386719 C 322.707031 148.480469 322.539062 148.578125 322.359375 148.664062 C 320.609375 149.515625 318.71875 149.851562 316.816406 150.117188 C 313.472656 150.585938 310.121094 150.753906 306.78125 150.082031 Z M 333.363281 152.398438 C 333.179688 151.941406 333.257812 151.433594 333.492188 150.96875 C 333.769531 150.808594 333.945312 150.914062 334.09375 151.09375 C 334.429688 151.523438 334.304688 151.929688 333.925781 152.308594 C 333.757812 152.476562 333.464844 152.652344 333.363281 152.398438 Z M 330.320312 150.523438 C 330.011719 150.515625 329.699219 150.488281 329.394531 150.433594 C 326.703125 149.933594 324.003906 149.566406 321.234375 149.933594 C 323.855469 148.0625 326.644531 146.683594 329.921875 146.5625 C 330.199219 146.554688 330.488281 146.597656 330.757812 146.664062 C 331.875 146.921875 332.449219 147.808594 332.304688 149.023438 C 332.1875 150.042969 331.527344 150.546875 330.320312 150.523438 Z M 331.851562 157.601562 C 332.085938 157.191406 332.359375 156.730469 332.878906 156.9375 C 333.363281 157.132812 333.21875 157.652344 333.09375 158.046875 C 332.964844 158.472656 332.636719 158.714844 332.1875 158.570312 C 331.699219 158.410156 331.730469 158.003906 331.851562 157.601562 Z M 325.328125 156.71875 C 324.394531 156.3125 323.492188 155.851562 322.574219 155.414062 C 320.699219 154.300781 318.761719 153.277344 317.074219 151.871094 C 316.597656 151.292969 316.804688 151.070312 317.484375 151.015625 C 318.074219 150.964844 318.667969 150.882812 319.242188 150.746094 C 321.878906 150.113281 324.515625 150.28125 327.148438 150.730469 C 328.097656 150.890625 329.007812 151.203125 329.796875 151.792969 C 330.550781 152.355469 330.835938 153.09375 330.617188 154.023438 C 330.105469 156.191406 327.367188 157.601562 325.328125 156.71875 Z M 322.285156 135.222656 C 321.648438 135.617188 320.28125 136.675781 319.609375 136.964844 C 315.703125 138.648438 313.683594 139.730469 311.371094 141.371094 C 307.910156 143.828125 306.101562 144.488281 303.417969 146.011719 C 302.6875 146.425781 301.90625 146.78125 300.871094 146.488281 C 301.195312 146.074219 301.429688 145.761719 301.679688 145.460938 C 302.574219 144.371094 303.609375 143.339844 304.007812 141.957031 C 304.734375 139.4375 306.171875 137.332031 307.566406 135.164062 C 308.457031 133.785156 309.605469 132.839844 311.105469 132.292969 C 313.285156 131.496094 315.410156 130.605469 317.34375 129.292969 C 317.925781 128.902344 319.925781 128.628906 320.625 128.484375 C 322.273438 128.152344 322.386719 128.953125 322.980469 130.5 C 323.601562 132.125 323.613281 134.402344 322.285156 135.222656 Z M 319.066406 127.953125 C 316.769531 128.824219 314.363281 130.421875 311.597656 131.21875 C 311.105469 131.359375 310.613281 131.46875 310.097656 131.464844 C 309.167969 131.453125 308.8125 131.074219 308.898438 130.140625 C 308.972656 129.324219 309.125 128.515625 309.375 127.734375 C 309.792969 126.410156 310.546875 125.386719 311.824219 124.742188 C 313.386719 123.949219 315.140625 123.515625 316.574219 122.503906 C 319.210938 120.640625 318.773438 122.234375 319.667969 123.292969 C 320.074219 123.773438 320.359375 124.324219 320.519531 124.933594 C 320.863281 126.226562 320.546875 127.015625 319.066406 127.953125 Z M 321.703125 126.390625 C 321.558594 126.144531 321.433594 125.894531 321.84375 125.664062 C 322.414062 125.339844 323.570312 125.238281 323.765625 125.585938 C 324.058594 126.109375 323.65625 126.425781 323.289062 126.691406 C 322.753906 127.074219 322.070312 126.945312 321.703125 126.390625 Z M 325.847656 128.355469 C 326.375 128.164062 326.566406 128.214844 326.847656 128.628906 C 327.214844 129.171875 326.839844 129.726562 326.433594 130.074219 C 325.84375 130.46875 325.511719 130.230469 325.078125 129.847656 C 324.890625 129.683594 324.691406 128.78125 325.847656 128.355469 Z M 322.695312 123.640625 C 322.308594 123.878906 321.902344 124.148438 321.449219 123.835938 C 321.035156 123.550781 321.078125 123.105469 321.175781 122.683594 C 321.328125 122 321.648438 121.46875 322.453125 121.453125 C 322.910156 121.445312 323.304688 121.582031 323.445312 122.066406 C 323.652344 122.792969 323.164062 123.214844 322.695312 123.640625 Z M 325.257812 125.085938 C 325.066406 124.777344 325.265625 124.523438 325.449219 124.289062 C 325.585938 124.113281 325.765625 124.175781 325.828125 124.367188 C 325.929688 124.648438 326.019531 124.960938 325.753906 125.214844 C 325.554688 125.40625 325.410156 125.257812 325.257812 125.085938 Z M 322.167969 118.441406 C 322.421875 118.871094 322.25 119.363281 321.824219 119.617188 C 321.398438 119.875 320.78125 119.957031 320.519531 119.511719 C 320.234375 119.03125 320.855469 118.792969 321.132812 118.488281 C 321.488281 118.332031 321.875 117.953125 322.167969 118.441406 Z M 320.539062 116.910156 C 319.839844 117.398438 319.0625 117.285156 318.609375 116.632812 C 318.082031 115.871094 318.175781 114.566406 318.792969 114.167969 C 319.410156 113.765625 320.566406 114.125 321.089844 114.882812 C 321.546875 115.542969 321.324219 116.363281 320.539062 116.910156 Z M 317.332031 113.480469 C 316.335938 113.652344 314.371094 114.003906 314.101562 113.308594 C 313.851562 112.660156 315.136719 111.238281 316.339844 110.488281 C 316.792969 110.21875 317.4375 109.871094 318.160156 109.714844 C 318.71875 109.59375 319.167969 109.730469 319.339844 110.351562 C 319.703125 111.679688 318.691406 113.25 317.332031 113.480469 Z M 323.464844 116.980469 C 323.722656 116.757812 323.941406 116.882812 324.105469 117.109375 C 324.234375 117.289062 324.351562 117.492188 324.144531 117.703125 C 323.839844 117.855469 323.578125 117.742188 323.367188 117.550781 C 323.148438 117.34375 323.285156 117.136719 323.464844 116.980469 Z M 322.5625 114.113281 C 322.195312 114.355469 321.824219 114.363281 321.425781 114.101562 C 321.328125 113.835938 321.4375 113.59375 321.65625 113.457031 C 322.015625 113.234375 322.421875 113.214844 322.726562 113.554688 C 322.925781 113.773438 322.765625 113.980469 322.5625 114.113281 Z M 324.3125 120.457031 C 324.605469 120.261719 324.835938 120.378906 325.011719 120.660156 C 325.167969 121.015625 325.390625 121.382812 324.949219 121.695312 C 324.628906 121.921875 324.335938 121.777344 324.171875 121.492188 C 323.976562 121.136719 323.894531 120.738281 324.3125 120.457031 Z M 320.140625 110.828125 C 320.429688 110.632812 320.664062 110.75 320.839844 111.03125 C 320.992188 111.386719 321.214844 111.753906 320.773438 112.066406 C 320.453125 112.292969 320.160156 112.148438 320 111.863281 C 319.800781 111.511719 319.71875 111.109375 320.140625 110.828125 Z M 318.722656 107.570312 C 317.917969 108.210938 317.023438 108.691406 316.074219 109.070312 C 315.417969 109.332031 314.753906 109.582031 314.03125 109.5625 C 313.738281 109.554688 312.773438 109.914062 312.636719 109.605469 C 312.480469 109.257812 313.417969 108.652344 313.640625 108.480469 C 314.089844 108.140625 314.554688 107.820312 315.011719 107.492188 C 315.96875 106.890625 316.910156 106.253906 318.0625 106.074219 C 318.542969 106 318.976562 106.09375 319.1875 106.597656 C 319.386719 107.082031 319.027344 107.332031 318.722656 107.570312 Z M 320.660156 108.910156 C 320.265625 108.261719 320.75 107.8125 321.222656 107.433594 C 321.753906 107.035156 322.273438 107.082031 322.621094 107.609375 C 323.023438 108.214844 322.671875 108.691406 322.148438 109.015625 C 321.644531 109.324219 321.042969 109.535156 320.660156 108.910156 Z M 322.753906 111.789062 C 322.480469 111.386719 322.527344 111.003906 322.828125 110.699219 C 323.128906 110.464844 323.363281 110.519531 323.519531 110.769531 C 323.769531 111.15625 323.8125 111.566406 323.457031 111.914062 C 323.199219 112.164062 322.9375 112.0625 322.753906 111.789062 Z M 321.542969 105.839844 C 321.363281 105.238281 321.761719 104.855469 322.179688 104.527344 C 322.457031 104.316406 322.796875 104.355469 322.957031 104.714844 C 323.226562 105.316406 322.910156 105.761719 322.453125 106.078125 C 322.144531 106.296875 321.804688 106.195312 321.542969 105.839844 Z M 320.929688 101.410156 C 320.847656 101.058594 320.808594 100.691406 321.164062 100.511719 C 321.433594 100.378906 321.886719 100.328125 322 100.605469 C 322.144531 100.964844 321.757812 101.234375 321.480469 101.457031 C 321.296875 101.605469 321.085938 101.675781 320.929688 101.410156 Z M 320.609375 98.417969 C 320.972656 98.988281 320.515625 99.792969 319.515625 99.03125 C 319.308594 98.148438 319.902344 97.761719 320.425781 98.222656 C 320.519531 98.308594 320.546875 98.320312 320.609375 98.417969 Z M 321.089844 104.535156 C 320.636719 105.0625 319.988281 105.179688 319.320312 105.152344 C 319.082031 105.144531 318.863281 105.03125 318.878906 104.742188 C 318.90625 104.121094 319.304688 103.726562 319.757812 103.367188 C 319.800781 103.335938 319.851562 103.308594 320.007812 103.207031 C 320.320312 103.035156 320.785156 102.746094 321.191406 103.214844 C 321.558594 103.640625 321.417969 104.152344 321.089844 104.535156 Z M 319.226562 100.960938 C 319.542969 101.539062 319.125 101.832031 318.757812 102.097656 C 318.230469 102.429688 317.683594 102.570312 317.296875 102.042969 C 316.941406 101.558594 317.171875 101.070312 317.640625 100.742188 C 318.140625 100.386719 318.980469 100.507812 319.226562 100.960938 Z M 316.382812 100.6875 C 316.476562 100.832031 316.304688 100.988281 316.203125 101.125 C 315.871094 101.585938 315.476562 101.984375 314.945312 102.382812 C 314.835938 102.445312 314.683594 102.6875 314.445312 102.625 C 314.21875 102.570312 314.230469 102.304688 314.222656 102.121094 C 314.203125 101.480469 315.300781 100.449219 315.941406 100.503906 C 316.097656 100.515625 316.3125 100.574219 316.382812 100.6875 Z M 316.355469 102.671875 C 316.804688 102.566406 317.445312 103.121094 317.738281 103.589844 C 318.03125 104.066406 317.992188 104.578125 317.582031 104.984375 C 316.515625 106.046875 315.234375 106.710938 313.734375 106.90625 C 313.398438 106.949219 313.039062 106.921875 312.855469 106.558594 C 312.65625 106.171875 312.824219 105.847656 313.089844 105.570312 C 313.578125 105.054688 314.128906 104.621094 314.730469 104.25 C 315.296875 103.886719 315.683594 102.832031 316.355469 102.671875 Z M 312.453125 107.019531 C 312.703125 107.375 312.484375 107.664062 312.1875 107.875 C 311.8125 108.144531 311.382812 108.136719 311.136719 107.761719 C 310.894531 107.386719 311.371094 107.210938 311.515625 106.964844 C 311.867188 106.792969 312.207031 106.660156 312.453125 107.019531 Z M 312.886719 110.515625 C 313.261719 110.289062 313.394531 110.457031 313.40625 110.820312 C 313.433594 111.699219 312.984375 112.304688 312.167969 112.832031 C 312.058594 112.882812 311.835938 113.007812 311.59375 113.074219 C 311.363281 113.140625 311.078125 113.320312 310.890625 113.09375 C 310.71875 112.878906 310.882812 112.601562 310.992188 112.378906 C 311.402344 111.535156 312.097656 110.980469 312.886719 110.515625 Z M 311.316406 109.460938 C 311.738281 110.355469 311.367188 111.488281 310.40625 112.214844 C 309.945312 112.65625 309.675781 112.375 309.519531 111.902344 C 309.238281 111.050781 309.535156 110.242188 309.792969 109.445312 C 309.902344 109.117188 310.132812 108.839844 310.515625 108.824219 C 310.945312 108.804688 311.15625 109.125 311.316406 109.460938 Z M 312.800781 104.339844 C 312.359375 105.257812 311.871094 105.402344 311.164062 106.296875 C 311.023438 106.476562 310.777344 106.300781 310.722656 106.03125 C 310.605469 105.578125 312.394531 103.449219 312.832031 103.546875 C 313.214844 103.628906 312.949219 104.039062 312.800781 104.339844 Z M 309.421875 108.863281 C 309.332031 109.394531 309.066406 109.847656 308.675781 110.21875 C 308.585938 110.304688 308.476562 110.289062 308.40625 110.167969 C 308.277344 109.964844 308.875 108.59375 309.117188 108.5625 C 309.324219 108.539062 309.449219 108.6875 309.421875 108.863281 Z M 312.003906 113.828125 C 312.210938 113.789062 312.476562 113.683594 312.628906 113.894531 C 312.765625 114.074219 312.570312 114.257812 312.480469 114.425781 C 312.078125 115.175781 311.539062 115.816406 310.839844 116.3125 C 310.691406 116.394531 310.550781 116.5 310.394531 116.554688 C 310.109375 116.648438 309.78125 116.890625 309.527344 116.648438 C 309.246094 116.378906 309.410156 116.003906 309.5625 115.707031 C 310.078125 114.699219 310.875 114.039062 312.003906 113.828125 Z M 307.945312 111.125 C 308.472656 111.832031 307.695312 113.136719 306.972656 113.832031 C 306.871094 113.929688 306.746094 114.023438 306.601562 113.960938 C 306.441406 113.894531 306.457031 113.730469 306.464844 113.597656 C 306.523438 112.585938 307.101562 111.171875 307.945312 111.125 Z M 304.449219 120.671875 C 304.355469 120.800781 304.234375 120.980469 304.046875 120.921875 C 303.792969 120.84375 303.851562 120.605469 303.878906 120.417969 C 304.039062 119.25 304.570312 118.21875 305.152344 117.21875 C 305.628906 116.398438 306.105469 114.71875 307.070312 115.140625 C 307.960938 115.601562 305.6875 119.007812 304.449219 120.671875 Z M 310.707031 123.523438 C 310.527344 122.726562 310.257812 121.949219 310.085938 121.152344 C 309.816406 119.898438 310.183594 118.824219 311.089844 117.90625 C 311.53125 117.460938 312.042969 117.113281 312.542969 116.753906 C 313.390625 116.160156 315.09375 114.554688 316.199219 115.082031 C 317.449219 115.675781 317.453125 117.625 317.644531 119.023438 C 317.828125 120.355469 317.109375 121.28125 316.097656 122.019531 C 314.671875 123.0625 313.007812 123.507812 311.316406 123.878906 C 310.996094 123.945312 310.792969 123.910156 310.707031 123.523438 Z M 302.824219 125.558594 C 303.785156 121.964844 307.25 117.414062 309.917969 118.023438 C 309.367188 119.863281 309.53125 121.496094 310.128906 123.085938 C 310.410156 123.839844 310.300781 124.480469 309.910156 125.175781 C 308.832031 127.085938 308.214844 129.128906 308.5625 131.34375 C 308.695312 132.167969 308.484375 132.835938 308.042969 133.492188 C 306.234375 136.1875 304.527344 138.941406 303.234375 141.933594 C 302.800781 142.945312 302.273438 143.917969 301.632812 144.816406 C 301.40625 145.136719 301.152344 145.449219 300.859375 145.707031 C 300.332031 146.171875 299.984375 146.070312 299.695312 145.421875 C 299.496094 144.972656 299.457031 144.496094 299.484375 144.011719 C 299.855469 137.726562 301.207031 131.609375 302.824219 125.558594 Z M 303.144531 153.679688 C 304.023438 154.886719 312.207031 160.609375 317.519531 163.589844 C 317.519531 163.589844 324.726562 168.46875 326.878906 169.597656 C 329.03125 170.730469 330.039062 168.96875 330.570312 167.804688 C 331.207031 166.429688 332.441406 171.214844 334.679688 170.316406 C 335.929688 169.8125 335.246094 168.613281 335.570312 167.085938 C 335.894531 165.5625 337.597656 166.78125 338.480469 165.90625 C 339.359375 165.027344 338.234375 164.351562 340.210938 162.859375 C 341.160156 162.140625 344.925781 166.0625 347.628906 168.554688 C 350.332031 171.046875 353.035156 169.496094 352.570312 166.761719 C 352.109375 164.027344 346.277344 164.882812 340.734375 159.554688 C 339.308594 158.183594 339.527344 156.523438 339.164062 155.546875 C 338.796875 154.570312 340.070312 154.25 340.507812 152.246094 C 340.941406 150.25 338.1875 148.972656 337.800781 148.089844 C 337.777344 148.011719 337.761719 147.933594 337.753906 147.851562 C 337.785156 147.050781 339.625 146.265625 339.933594 145.234375 C 340.269531 144.105469 336.210938 142.484375 336.210938 142.484375 C 336.246094 142.320312 336.289062 142.148438 336.277344 141.984375 C 336.128906 139.949219 335.003906 138.492188 333.496094 138.121094 C 332.304688 137.832031 332.488281 137.03125 331.96875 135.925781 C 331.402344 134.71875 328.679688 133.328125 324.78125 135.050781 C 328.625 131.339844 329.679688 128.941406 328.214844 126.695312 C 328.097656 126.515625 327.886719 126.367188 327.988281 126.101562 C 328.484375 124.816406 327.898438 123.707031 327.347656 122.636719 C 326.703125 121.386719 326.292969 120.089844 326.117188 118.699219 C 325.953125 117.433594 325.699219 116.1875 324.816406 115.179688 C 324.503906 114.824219 324.703125 114.414062 324.730469 114.039062 C 325.042969 110.070312 324.878906 106.136719 323.75 102.289062 C 323.382812 101.035156 322.902344 99.828125 322.136719 98.757812 C 321.875 98.394531 321.585938 98.035156 321.253906 97.734375 C 320.417969 96.980469 319.667969 96.941406 318.722656 97.558594 C 314.679688 100.199219 311.492188 103.683594 308.84375 107.675781 C 304.648438 114.007812 302.09375 121.007812 300.464844 128.378906 C 299.335938 133.5 298.734375 138.683594 298.601562 143.925781 C 298.597656 144.125 296.941406 149.878906 296.921875 150.164062 C 296.921875 150.164062 302.15625 152.316406 303.144531 153.679688 " fill-opacity="1" fill-rule="nonzero"/></g><path fill="#231f20" d="M 264.738281 145.195312 L 247.222656 151.417969 L 247.355469 151.746094 L 264.738281 145.730469 L 264.738281 145.195312 " fill-opacity="1" fill-rule="nonzero"/><path fill="#231f20" d="M 246.59375 152.539062 C 246.605469 152.53125 246.765625 152.707031 246.945312 152.933594 C 247.128906 153.160156 247.265625 153.351562 247.253906 153.363281 C 247.242188 153.371094 247.082031 153.195312 246.902344 152.96875 C 246.71875 152.742188 246.582031 152.550781 246.59375 152.539062 " fill-opacity="1" fill-rule="nonzero"/><path fill="#231f20" d="M 247.332031 152.621094 C 247.34375 152.632812 247.167969 152.792969 246.941406 152.972656 C 246.714844 153.15625 246.523438 153.292969 246.511719 153.28125 C 246.503906 153.265625 246.679688 153.109375 246.90625 152.929688 C 247.132812 152.746094 247.324219 152.609375 247.332031 152.621094 " fill-opacity="1" fill-rule="nonzero"/><path fill="#231f20" d="M 246.992188 152.316406 C 247.011719 152.320312 246.996094 152.605469 246.957031 152.953125 C 246.917969 153.304688 246.875 153.585938 246.855469 153.585938 C 246.835938 153.582031 246.851562 153.296875 246.890625 152.949219 C 246.929688 152.597656 246.976562 152.3125 246.992188 152.316406 " fill-opacity="1" fill-rule="nonzero"/><path fill="#231f20" d="M 247.558594 153.019531 C 247.554688 153.039062 247.269531 153.023438 246.921875 152.984375 C 246.570312 152.945312 246.285156 152.898438 246.289062 152.882812 C 246.292969 152.863281 246.578125 152.878906 246.929688 152.914062 C 247.277344 152.953125 247.558594 153 247.558594 153.019531 " fill-opacity="1" fill-rule="nonzero"/><path fill="#231f20" d="M 244.679688 151.765625 C 244.679688 151.75 244.914062 151.734375 245.203125 151.726562 C 245.492188 151.71875 245.730469 151.726562 245.730469 151.742188 C 245.730469 151.757812 245.496094 151.777344 245.203125 151.78125 C 244.914062 151.789062 244.679688 151.78125 244.679688 151.765625 " fill-opacity="1" fill-rule="nonzero"/><path fill="#231f20" d="M 245.191406 151.230469 C 245.207031 151.230469 245.226562 151.464844 245.234375 151.753906 C 245.238281 152.042969 245.230469 152.28125 245.214844 152.28125 C 245.199219 152.28125 245.183594 152.046875 245.175781 151.753906 C 245.167969 151.464844 245.175781 151.230469 245.191406 151.230469 " fill-opacity="1" fill-rule="nonzero"/><path fill="#231f20" d="M 244.742188 151.316406 C 244.753906 151.300781 244.972656 151.488281 245.226562 151.730469 C 245.480469 151.972656 245.679688 152.179688 245.664062 152.195312 C 245.652344 152.207031 245.433594 152.023438 245.179688 151.78125 C 244.925781 151.535156 244.730469 151.328125 244.742188 151.316406 " fill-opacity="1" fill-rule="nonzero"/><path fill="#231f20" d="M 245.644531 151.292969 C 245.660156 151.304688 245.472656 151.523438 245.230469 151.777344 C 244.984375 152.035156 244.777344 152.230469 244.761719 152.214844 C 244.75 152.203125 244.933594 151.984375 245.179688 151.730469 C 245.421875 151.476562 245.628906 151.28125 245.644531 151.292969 " fill-opacity="1" fill-rule="nonzero"/><path fill="#231f20" d="M 244.886719 153.515625 C 244.886719 153.5 245.121094 153.484375 245.410156 153.476562 C 245.703125 153.46875 245.9375 153.476562 245.9375 153.492188 C 245.9375 153.507812 245.703125 153.527344 245.414062 153.535156 C 245.121094 153.539062 244.886719 153.535156 244.886719 153.515625 " fill-opacity="1" fill-rule="nonzero"/><path fill="#231f20" d="M 245.398438 152.980469 C 245.414062 152.980469 245.433594 153.214844 245.441406 153.503906 C 245.449219 153.796875 245.441406 154.03125 245.421875 154.03125 C 245.410156 154.03125 245.390625 153.796875 245.382812 153.507812 C 245.375 153.214844 245.382812 152.980469 245.398438 152.980469 " fill-opacity="1" fill-rule="nonzero"/><path fill="#231f20" d="M 244.949219 153.066406 C 244.964844 153.050781 245.179688 153.238281 245.4375 153.480469 C 245.691406 153.722656 245.886719 153.933594 245.875 153.945312 C 245.859375 153.960938 245.644531 153.773438 245.386719 153.53125 C 245.132812 153.289062 244.9375 153.078125 244.949219 153.066406 " fill-opacity="1" fill-rule="nonzero"/><path fill="#231f20" d="M 245.851562 153.042969 C 245.867188 153.058594 245.679688 153.273438 245.4375 153.53125 C 245.195312 153.785156 244.984375 153.980469 244.972656 153.96875 C 244.957031 153.953125 245.144531 153.738281 245.386719 153.480469 C 245.628906 153.226562 245.839844 153.03125 245.851562 153.042969 " fill-opacity="1" fill-rule="nonzero"/><path fill="#231f20" d="M 239.4375 154.769531 C 239.4375 154.753906 239.671875 154.734375 239.960938 154.726562 C 240.253906 154.71875 240.488281 154.726562 240.488281 154.742188 C 240.488281 154.757812 240.253906 154.777344 239.964844 154.785156 C 239.671875 154.789062 239.4375 154.785156 239.4375 154.769531 " fill-opacity="1" fill-rule="nonzero"/><path fill="#231f20" d="M 239.953125 154.230469 C 239.96875 154.230469 239.984375 154.464844 239.992188 154.753906 C 240 155.042969 239.992188 155.28125 239.976562 155.28125 C 239.960938 155.28125 239.941406 155.046875 239.933594 154.757812 C 239.929688 154.464844 239.933594 154.230469 239.953125 154.230469 " fill-opacity="1" fill-rule="nonzero"/><path fill="#231f20" d="M 239.5 154.316406 C 239.515625 154.300781 239.730469 154.488281 239.988281 154.730469 C 240.242188 154.972656 240.4375 155.183594 240.425781 155.195312 C 240.410156 155.210938 240.195312 155.023438 239.941406 154.78125 C 239.683594 154.539062 239.488281 154.328125 239.5 154.316406 " fill-opacity="1" fill-rule="nonzero"/><path fill="#231f20" d="M 240.40625 154.292969 C 240.417969 154.308594 240.230469 154.523438 239.988281 154.78125 C 239.746094 155.035156 239.535156 155.230469 239.523438 155.214844 C 239.507812 155.203125 239.695312 154.984375 239.9375 154.730469 C 240.183594 154.476562 240.390625 154.28125 240.40625 154.292969 " fill-opacity="1" fill-rule="nonzero"/><g clip-path="url(#id6)"><path fill="#231f20" d="M 236.410156 157.175781 C 236.410156 157.160156 236.648438 157.140625 236.9375 157.132812 C 237.226562 157.128906 237.464844 157.136719 237.464844 157.152344 C 237.464844 157.167969 237.230469 157.183594 236.9375 157.191406 C 236.648438 157.199219 236.410156 157.191406 236.410156 157.175781 " fill-opacity="1" fill-rule="nonzero"/></g><g clip-path="url(#id7)"><path fill="#231f20" d="M 236.925781 156.636719 C 236.941406 156.636719 236.960938 156.871094 236.96875 157.164062 C 236.972656 157.453125 236.964844 157.6875 236.949219 157.6875 C 236.933594 157.6875 236.917969 157.453125 236.910156 157.164062 C 236.902344 156.875 236.910156 156.636719 236.925781 156.636719 " fill-opacity="1" fill-rule="nonzero"/></g><g clip-path="url(#id8)"><path fill="#231f20" d="M 236.476562 156.722656 C 236.488281 156.707031 236.707031 156.894531 236.960938 157.136719 C 237.214844 157.378906 237.414062 157.589844 237.398438 157.601562 C 237.386719 157.617188 237.167969 157.429688 236.914062 157.1875 C 236.660156 156.945312 236.464844 156.738281 236.476562 156.722656 " fill-opacity="1" fill-rule="nonzero"/><path fill="#231f20" d="M 237.378906 156.703125 C 237.394531 156.714844 237.207031 156.933594 236.960938 157.1875 C 236.71875 157.441406 236.511719 157.636719 236.496094 157.625 C 236.484375 157.609375 236.667969 157.394531 236.914062 157.140625 C 237.15625 156.882812 237.363281 156.6875 237.378906 156.703125 " fill-opacity="1" fill-rule="nonzero"/></g><path fill="#231f20" d="M 239.761719 156.472656 C 239.761719 156.453125 239.996094 156.4375 240.289062 156.429688 C 240.578125 156.421875 240.8125 156.429688 240.816406 156.445312 C 240.816406 156.460938 240.578125 156.480469 240.289062 156.488281 C 240 156.492188 239.761719 156.488281 239.761719 156.472656 " fill-opacity="1" fill-rule="nonzero"/><path fill="#231f20" d="M 240.277344 155.933594 C 240.292969 155.933594 240.308594 156.167969 240.316406 156.457031 C 240.324219 156.75 240.316406 156.984375 240.300781 156.984375 C 240.285156 156.984375 240.265625 156.75 240.257812 156.460938 C 240.253906 156.167969 240.261719 155.933594 240.277344 155.933594 " fill-opacity="1" fill-rule="nonzero"/><path fill="#231f20" d="M 239.828125 156.019531 C 239.839844 156.003906 240.058594 156.191406 240.3125 156.433594 C 240.566406 156.675781 240.761719 156.882812 240.75 156.898438 C 240.738281 156.914062 240.519531 156.726562 240.265625 156.484375 C 240.007812 156.238281 239.8125 156.03125 239.828125 156.019531 " fill-opacity="1" fill-rule="nonzero"/><path fill="#231f20" d="M 240.730469 155.996094 C 240.742188 156.011719 240.554688 156.226562 240.3125 156.480469 C 240.070312 156.738281 239.859375 156.933594 239.847656 156.921875 C 239.832031 156.90625 240.019531 156.691406 240.261719 156.433594 C 240.507812 156.179688 240.714844 155.984375 240.730469 155.996094 " fill-opacity="1" fill-rule="nonzero"/><path fill="#231f20" d="M 243.492188 150.269531 C 243.496094 150.257812 243.714844 150.34375 243.976562 150.46875 C 244.242188 150.589844 244.449219 150.703125 244.441406 150.714844 C 244.4375 150.730469 244.21875 150.644531 243.953125 150.519531 C 243.691406 150.398438 243.484375 150.285156 243.492188 150.269531 " fill-opacity="1" fill-rule="nonzero"/><path fill="#231f20" d="M 244.191406 150.015625 C 244.203125 150.023438 244.117188 150.242188 243.992188 150.503906 C 243.867188 150.769531 243.757812 150.976562 243.742188 150.96875 C 243.730469 150.960938 243.816406 150.746094 243.941406 150.480469 C 244.0625 150.21875 244.175781 150.011719 244.191406 150.015625 " fill-opacity="1" fill-rule="nonzero"/><path fill="#231f20" d="M 243.75 149.894531 C 243.765625 149.886719 243.878906 150.148438 244 150.480469 C 244.117188 150.8125 244.203125 151.085938 244.183594 151.09375 C 244.164062 151.101562 244.054688 150.835938 243.933594 150.503906 C 243.816406 150.175781 243.730469 149.902344 243.75 149.894531 " fill-opacity="1" fill-rule="nonzero"/><path fill="#231f20" d="M 244.566406 150.277344 C 244.574219 150.292969 244.308594 150.40625 243.976562 150.527344 C 243.648438 150.644531 243.371094 150.730469 243.367188 150.710938 C 243.359375 150.691406 243.625 150.582031 243.957031 150.460938 C 244.285156 150.339844 244.558594 150.257812 244.566406 150.277344 " fill-opacity="1" fill-rule="nonzero"/><path fill="#231f20" d="M 246.238281 154.796875 C 246.246094 154.785156 246.464844 154.871094 246.730469 154.996094 C 246.992188 155.117188 247.199219 155.230469 247.191406 155.246094 C 247.1875 155.257812 246.96875 155.171875 246.703125 155.046875 C 246.441406 154.925781 246.234375 154.8125 246.238281 154.796875 " fill-opacity="1" fill-rule="nonzero"/><path fill="#231f20" d="M 246.9375 154.546875 C 246.953125 154.550781 246.867188 154.769531 246.742188 155.03125 C 246.617188 155.296875 246.507812 155.503906 246.492188 155.496094 C 246.480469 155.488281 246.566406 155.273438 246.691406 155.007812 C 246.8125 154.746094 246.925781 154.539062 246.9375 154.546875 " fill-opacity="1" fill-rule="nonzero"/><path fill="#231f20" d="M 246.5 154.421875 C 246.519531 154.414062 246.628906 154.679688 246.75 155.007812 C 246.867188 155.339844 246.949219 155.613281 246.933594 155.621094 C 246.914062 155.628906 246.804688 155.363281 246.683594 155.03125 C 246.5625 154.703125 246.480469 154.429688 246.5 154.421875 " fill-opacity="1" fill-rule="nonzero"/><path fill="#231f20" d="M 247.316406 154.804688 C 247.324219 154.824219 247.058594 154.933594 246.730469 155.054688 C 246.398438 155.171875 246.121094 155.257812 246.117188 155.238281 C 246.109375 155.21875 246.371094 155.109375 246.703125 154.988281 C 247.035156 154.867188 247.308594 154.785156 247.316406 154.804688 " fill-opacity="1" fill-rule="nonzero"/><path fill="#231f20" d="M 241.152344 153.21875 C 241.160156 153.203125 241.382812 153.28125 241.652344 153.386719 C 241.921875 153.496094 242.136719 153.597656 242.128906 153.609375 C 242.125 153.625 241.898438 153.550781 241.628906 153.441406 C 241.359375 153.332031 241.148438 153.234375 241.152344 153.21875 " fill-opacity="1" fill-rule="nonzero"/><path fill="#231f20" d="M 241.839844 152.925781 C 241.851562 152.933594 241.777344 153.15625 241.667969 153.425781 C 241.558594 153.695312 241.457031 153.910156 241.445312 153.902344 C 241.429688 153.898438 241.503906 153.671875 241.613281 153.40625 C 241.722656 153.136719 241.824219 152.921875 241.839844 152.925781 " fill-opacity="1" fill-rule="nonzero"/><path fill="#231f20" d="M 241.390625 152.828125 C 241.410156 152.820312 241.535156 153.078125 241.671875 153.402344 C 241.8125 153.726562 241.910156 153.996094 241.890625 154 C 241.871094 154.007812 241.746094 153.753906 241.609375 153.429688 C 241.472656 153.105469 241.375 152.835938 241.390625 152.828125 " fill-opacity="1" fill-rule="nonzero"/><path fill="#231f20" d="M 242.230469 153.164062 C 242.234375 153.183594 241.980469 153.308594 241.65625 153.445312 C 241.332031 153.585938 241.0625 153.683594 241.054688 153.664062 C 241.046875 153.644531 241.304688 153.519531 241.628906 153.382812 C 241.953125 153.246094 242.222656 153.148438 242.230469 153.164062 " fill-opacity="1" fill-rule="nonzero"/><path fill="#231f20" d="M 245.9375 149.90625 C 245.9375 149.898438 246.066406 149.886719 246.222656 149.882812 C 246.378906 149.882812 246.507812 149.886719 246.507812 149.894531 C 246.507812 149.902344 246.378906 149.910156 246.222656 149.914062 C 246.066406 149.917969 245.9375 149.914062 245.9375 149.90625 " fill-opacity="1" fill-rule="nonzero"/><path fill="#231f20" d="M 246.214844 149.617188 C 246.222656 149.617188 246.234375 149.742188 246.238281 149.898438 C 246.242188 150.054688 246.238281 150.183594 246.230469 150.183594 C 246.21875 150.183594 246.210938 150.058594 246.207031 149.898438 C 246.203125 149.742188 246.207031 149.617188 246.214844 149.617188 " fill-opacity="1" fill-rule="nonzero"/><path fill="#231f20" d="M 245.972656 149.660156 C 245.980469 149.65625 246.097656 149.753906 246.234375 149.886719 C 246.371094 150.019531 246.480469 150.128906 246.472656 150.136719 C 246.464844 150.144531 246.347656 150.042969 246.210938 149.914062 C 246.070312 149.78125 245.964844 149.667969 245.972656 149.660156 " fill-opacity="1" fill-rule="nonzero"/><path fill="#231f20" d="M 246.460938 149.652344 C 246.46875 149.65625 246.367188 149.773438 246.234375 149.914062 C 246.105469 150.050781 245.992188 150.15625 245.984375 150.148438 C 245.976562 150.140625 246.078125 150.023438 246.207031 149.886719 C 246.339844 149.75 246.453125 149.644531 246.460938 149.652344 " fill-opacity="1" fill-rule="nonzero"/><path fill="#231f20" d="M 244.359375 155.695312 C 244.359375 155.6875 244.484375 155.679688 244.640625 155.675781 C 244.796875 155.671875 244.925781 155.675781 244.925781 155.683594 C 244.925781 155.691406 244.800781 155.703125 244.644531 155.707031 C 244.484375 155.707031 244.359375 155.703125 244.359375 155.695312 " fill-opacity="1" fill-rule="nonzero"/><path fill="#231f20" d="M 244.636719 155.40625 C 244.644531 155.40625 244.652344 155.53125 244.65625 155.691406 C 244.660156 155.847656 244.65625 155.972656 244.648438 155.972656 C 244.640625 155.972656 244.628906 155.847656 244.625 155.691406 C 244.625 155.535156 244.628906 155.40625 244.636719 155.40625 " fill-opacity="1" fill-rule="nonzero"/><path fill="#231f20" d="M 244.390625 155.453125 C 244.398438 155.445312 244.515625 155.546875 244.65625 155.675781 C 244.792969 155.808594 244.898438 155.921875 244.890625 155.929688 C 244.882812 155.933594 244.765625 155.835938 244.628906 155.703125 C 244.492188 155.574219 244.386719 155.460938 244.390625 155.453125 " fill-opacity="1" fill-rule="nonzero"/><path fill="#231f20" d="M 244.878906 155.441406 C 244.886719 155.449219 244.785156 155.566406 244.65625 155.703125 C 244.523438 155.839844 244.410156 155.945312 244.402344 155.9375 C 244.398438 155.933594 244.496094 155.816406 244.628906 155.675781 C 244.761719 155.539062 244.871094 155.433594 244.878906 155.441406 " fill-opacity="1" fill-rule="nonzero"/><path fill="#231f20" d="M 243.398438 153.472656 C 243.398438 153.464844 243.527344 153.453125 243.683594 153.453125 C 243.839844 153.449219 243.964844 153.453125 243.96875 153.460938 C 243.96875 153.46875 243.839844 153.480469 243.683594 153.480469 C 243.527344 153.484375 243.398438 153.480469 243.398438 153.472656 " fill-opacity="1" fill-rule="nonzero"/><path fill="#231f20" d="M 243.675781 153.183594 C 243.683594 153.183594 243.695312 153.308594 243.699219 153.464844 C 243.703125 153.625 243.699219 153.75 243.691406 153.75 C 243.679688 153.75 243.671875 153.625 243.667969 153.46875 C 243.664062 153.308594 243.667969 153.183594 243.675781 153.183594 " fill-opacity="1" fill-rule="nonzero"/><path fill="#231f20" d="M 243.433594 153.230469 C 243.441406 153.222656 243.558594 153.320312 243.695312 153.453125 C 243.832031 153.585938 243.9375 153.695312 243.933594 153.707031 C 243.925781 153.710938 243.808594 153.613281 243.667969 153.480469 C 243.53125 153.347656 243.425781 153.238281 243.433594 153.230469 " fill-opacity="1" fill-rule="nonzero"/><path fill="#231f20" d="M 243.921875 153.21875 C 243.929688 153.226562 243.828125 153.34375 243.695312 153.480469 C 243.566406 153.617188 243.453125 153.722656 243.445312 153.714844 C 243.4375 153.710938 243.539062 153.59375 243.667969 153.453125 C 243.800781 153.316406 243.914062 153.210938 243.921875 153.21875 " fill-opacity="1" fill-rule="nonzero"/><path fill="#231f20" d="M 239.984375 152.144531 C 239.984375 152.136719 240.109375 152.125 240.269531 152.121094 C 240.425781 152.117188 240.550781 152.121094 240.550781 152.128906 C 240.550781 152.136719 240.425781 152.148438 240.269531 152.152344 C 240.113281 152.15625 239.984375 152.152344 239.984375 152.144531 " fill-opacity="1" fill-rule="nonzero"/><path fill="#231f20" d="M 240.261719 151.851562 C 240.269531 151.851562 240.28125 151.980469 240.285156 152.136719 C 240.285156 152.292969 240.28125 152.421875 240.273438 152.421875 C 240.265625 152.421875 240.257812 152.292969 240.253906 152.136719 C 240.25 151.980469 240.253906 151.851562 240.261719 151.851562 " fill-opacity="1" fill-rule="nonzero"/><path fill="#231f20" d="M 240.019531 151.898438 C 240.027344 151.890625 240.144531 151.992188 240.28125 152.125 C 240.417969 152.253906 240.523438 152.367188 240.519531 152.375 C 240.511719 152.382812 240.394531 152.28125 240.253906 152.152344 C 240.117188 152.019531 240.011719 151.90625 240.019531 151.898438 " fill-opacity="1" fill-rule="nonzero"/><path fill="#231f20" d="M 240.507812 151.886719 C 240.511719 151.894531 240.414062 152.011719 240.28125 152.148438 C 240.148438 152.289062 240.039062 152.394531 240.03125 152.386719 C 240.023438 152.378906 240.125 152.261719 240.253906 152.125 C 240.386719 151.988281 240.5 151.878906 240.507812 151.886719 " fill-opacity="1" fill-rule="nonzero"/><path fill="#231f20" d="M 247.53125 154 C 247.53125 153.992188 247.660156 153.984375 247.816406 153.980469 C 247.972656 153.976562 248.101562 153.980469 248.101562 153.988281 C 248.101562 153.996094 247.976562 154.007812 247.820312 154.011719 C 247.660156 154.015625 247.53125 154.011719 247.53125 154 " fill-opacity="1" fill-rule="nonzero"/><path fill="#231f20" d="M 247.8125 153.710938 C 247.820312 153.710938 247.828125 153.839844 247.832031 153.996094 C 247.835938 154.152344 247.832031 154.28125 247.824219 154.28125 C 247.816406 154.28125 247.804688 154.152344 247.800781 153.996094 C 247.796875 153.839844 247.800781 153.710938 247.8125 153.710938 " fill-opacity="1" fill-rule="nonzero"/><path fill="#231f20" d="M 247.566406 153.757812 C 247.574219 153.75 247.691406 153.851562 247.832031 153.980469 C 247.96875 154.113281 248.074219 154.226562 248.066406 154.234375 C 248.058594 154.242188 247.941406 154.140625 247.804688 154.007812 C 247.667969 153.878906 247.5625 153.765625 247.566406 153.757812 " fill-opacity="1" fill-rule="nonzero"/><path fill="#231f20" d="M 248.054688 153.746094 C 248.0625 153.753906 247.964844 153.871094 247.832031 154.007812 C 247.699219 154.144531 247.585938 154.253906 247.578125 154.246094 C 247.570312 154.238281 247.671875 154.121094 247.804688 153.984375 C 247.9375 153.84375 248.046875 153.738281 248.054688 153.746094 " fill-opacity="1" fill-rule="nonzero"/><path fill="#231f20" d="M 241.847656 156.113281 C 241.851562 156.105469 241.960938 156.167969 242.097656 156.25 C 242.230469 156.332031 242.332031 156.40625 242.328125 156.414062 C 242.324219 156.421875 242.210938 156.359375 242.078125 156.277344 C 241.945312 156.195312 241.839844 156.121094 241.847656 156.113281 " fill-opacity="1" fill-rule="nonzero"/><path fill="#231f20" d="M 242.238281 156.023438 C 242.246094 156.027344 242.183594 156.136719 242.101562 156.273438 C 242.019531 156.40625 241.945312 156.507812 241.9375 156.503906 C 241.929688 156.5 241.992188 156.390625 242.074219 156.257812 C 242.15625 156.121094 242.230469 156.019531 242.238281 156.023438 " fill-opacity="1" fill-rule="nonzero"/><path fill="#231f20" d="M 242.007812 155.929688 C 242.019531 155.925781 242.0625 156.074219 242.105469 156.257812 C 242.148438 156.445312 242.175781 156.597656 242.167969 156.601562 C 242.15625 156.601562 242.113281 156.453125 242.070312 156.269531 C 242.027344 156.082031 242 155.929688 242.007812 155.929688 " fill-opacity="1" fill-rule="nonzero"/><path fill="#231f20" d="M 242.421875 156.1875 C 242.425781 156.195312 242.277344 156.238281 242.09375 156.28125 C 241.90625 156.324219 241.753906 156.351562 241.753906 156.34375 C 241.75 156.332031 241.898438 156.289062 242.082031 156.246094 C 242.269531 156.203125 242.421875 156.175781 242.421875 156.1875 " fill-opacity="1" fill-rule="nonzero"/><path fill="#231f20" d="M 241.75 150.28125 C 241.753906 150.273438 241.867188 150.335938 242 150.417969 C 242.132812 150.5 242.238281 150.574219 242.234375 150.582031 C 242.226562 150.589844 242.117188 150.527344 241.984375 150.445312 C 241.847656 150.363281 241.746094 150.289062 241.75 150.28125 " fill-opacity="1" fill-rule="nonzero"/><path fill="#231f20" d="M 242.140625 150.191406 C 242.148438 150.195312 242.085938 150.308594 242.003906 150.441406 C 241.921875 150.574219 241.847656 150.679688 241.839844 150.671875 C 241.835938 150.667969 241.894531 150.558594 241.976562 150.421875 C 242.0625 150.289062 242.132812 150.1875 242.140625 150.191406 " fill-opacity="1" fill-rule="nonzero"/><path fill="#231f20" d="M 241.910156 150.097656 C 241.921875 150.09375 241.964844 150.242188 242.007812 150.429688 C 242.050781 150.613281 242.078125 150.765625 242.070312 150.765625 C 242.058594 150.769531 242.015625 150.621094 241.972656 150.4375 C 241.929688 150.25 241.902344 150.097656 241.910156 150.097656 " fill-opacity="1" fill-rule="nonzero"/><path fill="#231f20" d="M 242.324219 150.355469 C 242.328125 150.363281 242.179688 150.40625 241.996094 150.449219 C 241.808594 150.492188 241.65625 150.519531 241.65625 150.511719 C 241.652344 150.5 241.800781 150.457031 241.984375 150.414062 C 242.171875 150.371094 242.324219 150.34375 242.324219 150.355469 " fill-opacity="1" fill-rule="nonzero"/><path fill="#231f20" d="M 238.710938 153.945312 C 238.710938 153.9375 238.839844 153.925781 238.996094 153.921875 C 239.152344 153.921875 239.28125 153.921875 239.28125 153.933594 C 239.28125 153.941406 239.152344 153.949219 238.996094 153.953125 C 238.839844 153.957031 238.710938 153.953125 238.710938 153.945312 " fill-opacity="1" fill-rule="nonzero"/><path fill="#231f20" d="M 238.988281 153.65625 C 239 153.65625 239.007812 153.78125 239.011719 153.9375 C 239.015625 154.09375 239.011719 154.222656 239.003906 154.222656 C 238.996094 154.222656 238.984375 154.097656 238.980469 153.9375 C 238.976562 153.78125 238.980469 153.65625 238.988281 153.65625 " fill-opacity="1" fill-rule="nonzero"/><path fill="#231f20" d="M 238.746094 153.699219 C 238.753906 153.695312 238.871094 153.792969 239.007812 153.925781 C 239.148438 154.054688 239.253906 154.167969 239.246094 154.175781 C 239.238281 154.183594 239.121094 154.082031 238.984375 153.953125 C 238.84375 153.820312 238.738281 153.707031 238.746094 153.699219 " fill-opacity="1" fill-rule="nonzero"/><path fill="#231f20" d="M 239.234375 153.6875 C 239.242188 153.695312 239.140625 153.8125 239.011719 153.953125 C 238.878906 154.089844 238.765625 154.195312 238.757812 154.1875 C 238.75 154.179688 238.851562 154.0625 238.984375 153.925781 C 239.113281 153.789062 239.226562 153.683594 239.234375 153.6875 " fill-opacity="1" fill-rule="nonzero"/><path fill="#231f20" d="M 247.03125 150.371094 C 247.03125 150.363281 247.160156 150.355469 247.316406 150.347656 C 247.472656 150.347656 247.601562 150.347656 247.601562 150.359375 C 247.601562 150.367188 247.472656 150.375 247.316406 150.378906 C 247.160156 150.382812 247.03125 150.378906 247.03125 150.371094 " fill-opacity="1" fill-rule="nonzero"/><path fill="#231f20" d="M 247.308594 150.082031 C 247.316406 150.082031 247.328125 150.207031 247.332031 150.363281 C 247.335938 150.519531 247.332031 150.648438 247.320312 150.648438 C 247.3125 150.648438 247.304688 150.523438 247.300781 150.363281 C 247.296875 150.207031 247.300781 150.082031 247.308594 150.082031 " fill-opacity="1" fill-rule="nonzero"/><path fill="#231f20" d="M 247.066406 150.128906 C 247.074219 150.121094 247.191406 150.21875 247.328125 150.351562 C 247.46875 150.484375 247.574219 150.59375 247.566406 150.601562 C 247.558594 150.609375 247.441406 150.507812 247.304688 150.378906 C 247.164062 150.246094 247.058594 150.132812 247.066406 150.128906 " fill-opacity="1" fill-rule="nonzero"/><path fill="#231f20" d="M 247.554688 150.117188 C 247.5625 150.121094 247.460938 150.242188 247.328125 150.378906 C 247.199219 150.515625 247.085938 150.621094 247.078125 150.613281 C 247.070312 150.605469 247.171875 150.488281 247.300781 150.351562 C 247.433594 150.214844 247.546875 150.109375 247.554688 150.117188 " fill-opacity="1" fill-rule="nonzero"/><path fill="#231f20" d="M 238.097656 155.769531 C 238.097656 155.761719 238.226562 155.753906 238.382812 155.75 C 238.539062 155.746094 238.667969 155.75 238.667969 155.757812 C 238.667969 155.765625 238.539062 155.777344 238.382812 155.78125 C 238.226562 155.785156 238.097656 155.777344 238.097656 155.769531 " fill-opacity="1" fill-rule="nonzero"/><path fill="#231f20" d="M 238.375 155.480469 C 238.382812 155.480469 238.394531 155.605469 238.398438 155.765625 C 238.402344 155.921875 238.398438 156.046875 238.390625 156.046875 C 238.382812 156.046875 238.371094 155.921875 238.367188 155.765625 C 238.363281 155.609375 238.367188 155.480469 238.375 155.480469 " fill-opacity="1" fill-rule="nonzero"/><path fill="#231f20" d="M 238.132812 155.527344 C 238.140625 155.519531 238.257812 155.621094 238.394531 155.75 C 238.53125 155.882812 238.640625 155.996094 238.632812 156.003906 C 238.625 156.007812 238.507812 155.910156 238.371094 155.777344 C 238.230469 155.648438 238.125 155.535156 238.132812 155.527344 " fill-opacity="1" fill-rule="nonzero"/><path fill="#231f20" d="M 238.621094 155.515625 C 238.628906 155.523438 238.527344 155.640625 238.394531 155.777344 C 238.265625 155.914062 238.152344 156.019531 238.144531 156.015625 C 238.136719 156.007812 238.238281 155.890625 238.367188 155.75 C 238.5 155.613281 238.613281 155.507812 238.621094 155.515625 " fill-opacity="1" fill-rule="nonzero"/><path fill="#231f20" d="M 238.609375 157.238281 C 238.609375 157.230469 238.734375 157.222656 238.894531 157.21875 C 239.050781 157.214844 239.175781 157.21875 239.175781 157.226562 C 239.175781 157.234375 239.050781 157.246094 238.894531 157.25 C 238.738281 157.25 238.609375 157.25 238.609375 157.238281 " fill-opacity="1" fill-rule="nonzero"/><path fill="#231f20" d="M 238.886719 156.949219 C 238.894531 156.949219 238.90625 157.074219 238.910156 157.234375 C 238.910156 157.390625 238.90625 157.515625 238.898438 157.515625 C 238.890625 157.515625 238.882812 157.390625 238.878906 157.234375 C 238.875 157.078125 238.878906 156.949219 238.886719 156.949219 " fill-opacity="1" fill-rule="nonzero"/><path fill="#231f20" d="M 238.644531 156.996094 C 238.652344 156.988281 238.769531 157.089844 238.90625 157.21875 C 239.042969 157.351562 239.148438 157.464844 239.140625 157.46875 C 239.136719 157.476562 239.019531 157.378906 238.878906 157.246094 C 238.742188 157.117188 238.636719 157.003906 238.644531 156.996094 " fill-opacity="1" fill-rule="nonzero"/><path fill="#231f20" d="M 239.132812 156.984375 C 239.136719 156.992188 239.039062 157.109375 238.90625 157.246094 C 238.773438 157.382812 238.660156 157.488281 238.65625 157.480469 C 238.648438 157.476562 238.75 157.355469 238.878906 157.21875 C 239.011719 157.082031 239.125 156.976562 239.132812 156.984375 " fill-opacity="1" fill-rule="nonzero"/><path fill="#231f20" d="M 248.269531 152.074219 C 248.269531 152.066406 248.394531 152.054688 248.554688 152.050781 C 248.710938 152.046875 248.839844 152.050781 248.839844 152.0625 C 248.839844 152.070312 248.710938 152.078125 248.554688 152.082031 C 248.398438 152.085938 248.269531 152.082031 248.269531 152.074219 " fill-opacity="1" fill-rule="nonzero"/><path fill="#231f20" d="M 248.546875 151.785156 C 248.554688 151.78125 248.566406 151.910156 248.570312 152.066406 C 248.574219 152.222656 248.570312 152.351562 248.558594 152.351562 C 248.550781 152.351562 248.542969 152.222656 248.539062 152.066406 C 248.535156 151.910156 248.539062 151.785156 248.546875 151.785156 " fill-opacity="1" fill-rule="nonzero"/><path fill="#231f20" d="M 248.304688 151.828125 C 248.3125 151.820312 248.429688 151.921875 248.566406 152.054688 C 248.703125 152.183594 248.8125 152.296875 248.804688 152.304688 C 248.796875 152.3125 248.679688 152.210938 248.542969 152.082031 C 248.402344 151.949219 248.296875 151.835938 248.304688 151.828125 " fill-opacity="1" fill-rule="nonzero"/><path fill="#231f20" d="M 248.792969 151.820312 C 248.800781 151.824219 248.699219 151.941406 248.566406 152.082031 C 248.4375 152.21875 248.324219 152.324219 248.316406 152.316406 C 248.308594 152.308594 248.410156 152.191406 248.539062 152.054688 C 248.671875 151.917969 248.785156 151.8125 248.792969 151.820312 " fill-opacity="1" fill-rule="nonzero"/><path fill="#231f20" d="M 242.320312 151.980469 C 242.324219 151.972656 242.441406 152.023438 242.582031 152.09375 C 242.722656 152.164062 242.832031 152.226562 242.828125 152.234375 C 242.824219 152.242188 242.707031 152.191406 242.570312 152.121094 C 242.429688 152.050781 242.316406 151.988281 242.320312 151.980469 " fill-opacity="1" fill-rule="nonzero"/><path fill="#231f20" d="M 242.703125 151.851562 C 242.707031 151.855469 242.660156 151.972656 242.589844 152.113281 C 242.519531 152.253906 242.457031 152.363281 242.449219 152.363281 C 242.441406 152.355469 242.492188 152.242188 242.5625 152.101562 C 242.632812 151.960938 242.695312 151.847656 242.703125 151.851562 " fill-opacity="1" fill-rule="nonzero"/><path fill="#231f20" d="M 242.464844 151.78125 C 242.476562 151.777344 242.53125 151.921875 242.59375 152.101562 C 242.652344 152.28125 242.695312 152.429688 242.683594 152.433594 C 242.675781 152.4375 242.617188 152.292969 242.558594 152.113281 C 242.496094 151.933594 242.457031 151.785156 242.464844 151.78125 " fill-opacity="1" fill-rule="nonzero"/><path fill="#231f20" d="M 242.902344 151.996094 C 242.90625 152.007812 242.761719 152.0625 242.582031 152.125 C 242.402344 152.183594 242.25 152.226562 242.25 152.214844 C 242.246094 152.207031 242.390625 152.148438 242.570312 152.089844 C 242.75 152.027344 242.898438 151.988281 242.902344 151.996094 " fill-opacity="1" fill-rule="nonzero"/><path fill="#231f20" d="M 242.5 155.03125 C 242.492188 155.015625 242.691406 154.890625 242.945312 154.746094 C 243.199219 154.605469 243.410156 154.5 243.417969 154.515625 C 243.425781 154.527344 243.226562 154.65625 242.972656 154.796875 C 242.71875 154.941406 242.507812 155.042969 242.5 155.03125 " fill-opacity="1" fill-rule="nonzero"/><path fill="#231f20" d="M 242.699219 154.3125 C 242.714844 154.308594 242.839844 154.503906 242.984375 154.757812 C 243.125 155.011719 243.230469 155.222656 243.214844 155.230469 C 243.203125 155.238281 243.074219 155.039062 242.933594 154.785156 C 242.792969 154.53125 242.6875 154.320312 242.699219 154.3125 " fill-opacity="1" fill-rule="nonzero"/><path fill="#231f20" d="M 242.34375 154.601562 C 242.347656 154.582031 242.628906 154.644531 242.96875 154.738281 C 243.308594 154.832031 243.578125 154.925781 243.574219 154.945312 C 243.566406 154.960938 243.289062 154.902344 242.949219 154.804688 C 242.609375 154.710938 242.339844 154.617188 242.34375 154.601562 " fill-opacity="1" fill-rule="nonzero"/><path fill="#231f20" d="M 243.128906 154.15625 C 243.148438 154.164062 243.085938 154.441406 242.992188 154.78125 C 242.898438 155.121094 242.804688 155.390625 242.785156 155.386719 C 242.769531 155.378906 242.832031 155.101562 242.925781 154.761719 C 243.019531 154.425781 243.113281 154.152344 243.128906 154.15625 " fill-opacity="1" fill-rule="nonzero"/><g clip-path="url(#id9)"><path fill="#231f20" d="M 341.640625 176.988281 C 340.441406 176.796875 337.539062 178.054688 335.78125 178.078125 C 334.019531 178.097656 332.042969 176.273438 331.324219 178.632812 C 330.609375 180.992188 330.863281 183.167969 328.050781 184.230469 C 325.234375 185.289062 315.410156 188.285156 314.011719 191.113281 C 313.480469 192.1875 312.546875 187.960938 311.660156 184.992188 C 312.335938 184.949219 314.617188 184.773438 315.570312 184.324219 C 313.539062 183.007812 312.863281 181.054688 312.863281 181.054688 C 312.863281 181.054688 315.628906 182.296875 316.980469 181.28125 C 314.300781 179.816406 312.015625 169.742188 307.261719 168.03125 C 306.167969 166.679688 305.117188 165.875 304.472656 165.046875 C 303.5625 163.886719 300.894531 161.519531 300.535156 159.539062 C 300.320312 158.347656 300.070312 156.605469 299.828125 154.839844 L 305.871094 159.785156 C 305.871094 159.785156 307.6875 163.3125 312.421875 169.289062 C 312.335938 170.007812 313.976562 171.441406 314.121094 171.5 C 314.265625 171.558594 316.324219 172.488281 316.480469 172.722656 C 316.636719 172.953125 317.476562 174.285156 318.429688 174.324219 L 317.6875 172.546875 L 316.714844 171.640625 L 318.222656 171.757812 L 318.898438 172.210938 C 318.882812 172.296875 318.867188 172.394531 318.851562 172.511719 C 318.789062 173 318.8125 173.324219 319.375 174.078125 C 319.449219 173.980469 319.496094 173.148438 319.519531 172.632812 L 319.5625 172.660156 C 319.570312 172.769531 319.582031 172.894531 319.589844 173.039062 C 319.605469 173.53125 319.679688 173.847656 320.355469 174.503906 C 320.398438 174.417969 320.355469 173.90625 320.308594 173.441406 C 320.539062 173.875 321.035156 174.550781 321.960938 174.847656 C 321.792969 174.738281 320.792969 172.773438 320.792969 172.773438 L 318.699219 170.398438 C 318.699219 170.398438 316.417969 169.722656 314.207031 168.84375 C 311.59375 161.675781 309.828125 158.683594 309.828125 158.683594 L 308.8125 157.539062 C 306.714844 155.148438 301.773438 149.515625 297.886719 146.011719 C 297.449219 145.410156 296.898438 144.953125 296.25 144.890625 C 296.246094 144.890625 296.242188 144.890625 296.234375 144.890625 C 296 144.34375 295.753906 143.75 295.535156 143.195312 C 295.5 142.96875 295.0625 141.695312 295.070312 141.585938 C 295.128906 140.980469 297.144531 139.316406 297.90625 137.320312 C 298.492188 135.792969 298.585938 134.539062 298.347656 132.953125 C 299.953125 132.570312 301.089844 131.050781 300.96875 129.324219 C 300.832031 127.40625 299.199219 125.960938 297.316406 126.09375 C 296.421875 126.15625 295.632812 126.566406 295.0625 127.183594 C 294.246094 126.738281 293.246094 126.460938 292.035156 126.433594 C 286.074219 126.300781 284.835938 128.085938 284.597656 128.625 C 283.304688 128.886719 280.625 129.785156 280.871094 132.640625 C 281.1875 134.339844 281.90625 135.027344 281.90625 135.027344 C 281.90625 135.027344 281.566406 133.082031 282.199219 132.546875 C 282.21875 132.9375 282.328125 133.34375 282.476562 133.71875 C 282.480469 134.332031 282.554688 135.023438 282.726562 135.792969 C 283.777344 137.742188 281.871094 138.324219 281.410156 138.949219 C 280.949219 139.578125 282.671875 140.023438 282.734375 140.21875 C 282.800781 140.414062 282.734375 140.886719 282.328125 141.121094 C 282.085938 141.261719 282.285156 141.558594 282.566406 141.675781 C 282.945312 141.832031 283.496094 141.792969 283.496094 141.792969 C 283.496094 141.792969 282.707031 142.246094 282.929688 142.53125 C 283.152344 142.816406 283.386719 142.738281 283.359375 143.089844 C 283.332031 143.445312 282.90625 143.964844 283.382812 144.410156 C 284.792969 145.730469 289.28125 143.078125 289.933594 143.679688 C 289.933594 143.683594 289.9375 143.683594 289.9375 143.6875 C 290.410156 145.148438 290.632812 146.261719 290.734375 146.949219 C 287.960938 148.648438 280.753906 154.273438 279.5625 155.207031 C 278.871094 154.332031 276.507812 151.382812 270.945312 144.730469 C 270.945312 144.730469 268.101562 144.03125 267.070312 143.808594 C 266.5625 143.695312 263.683594 144.660156 263.257812 144.730469 C 262.597656 144.980469 261.734375 145.355469 261.179688 145.605469 C 260.308594 146.003906 259.898438 146.222656 259.898438 146.222656 C 259.898438 146.222656 259.773438 146.863281 261.355469 146.460938 C 262.40625 146.191406 264.011719 145.484375 264.011719 145.484375 C 264.011719 145.484375 262.554688 146.265625 262.53125 146.496094 C 262.480469 146.933594 263.007812 146.839844 263.007812 146.839844 C 264.175781 146.902344 265.035156 147.210938 265.035156 147.210938 L 267.371094 147.273438 L 270.070312 146.503906 C 273.476562 152.585938 276.714844 157.703125 277.871094 158.636719 C 277.929688 158.683594 278.121094 158.867188 278.371094 158.921875 C 279.933594 159.269531 284.101562 156.859375 286.8125 155.136719 C 286.378906 156.582031 286.050781 158.742188 287.425781 159.945312 C 288.140625 160.570312 289.046875 161.332031 289.695312 161.808594 C 289.695312 161.808594 294.957031 165.96875 295.644531 169.765625 C 295.644531 169.765625 295.792969 170.507812 296.050781 171.648438 C 296.050781 171.648438 294.976562 175.984375 296.050781 179.703125 C 297.121094 183.421875 298.640625 185.902344 296.921875 188.382812 C 298.621094 187.90625 299.308594 186.28125 299.480469 185.789062 C 299.398438 186.148438 299.355469 187.132812 300.910156 188.382812 C 301.921875 191.15625 302.882812 193.480469 303.082031 194.230469 C 303.15625 194.503906 303.21875 194.734375 303.273438 194.945312 C 303.273438 194.945312 303.273438 194.949219 303.277344 194.953125 C 303.359375 195.257812 303.425781 195.507812 303.488281 195.714844 C 303.496094 195.710938 303.507812 195.710938 303.519531 195.710938 C 303.976562 197.042969 304.730469 198.796875 305.828125 201.714844 C 308.277344 208.210938 310.042969 217.648438 310.644531 220.804688 C 311.246094 223.960938 312 224.714844 312.449219 227.269531 C 312.902344 229.824219 311.09375 229.671875 311.246094 230.273438 C 311.398438 230.875 313.351562 230.726562 313.953125 229.671875 C 314.554688 228.621094 314.40625 225.464844 315.007812 223.8125 C 315.609375 222.15625 318.015625 220.957031 316.058594 219.453125 C 314.105469 217.949219 312.902344 217.496094 312.902344 214.492188 C 312.902344 211.484375 312.015625 200.613281 310.492188 198.859375 C 310.234375 198.5625 309.5 196.445312 308.894531 194.699219 C 310.363281 196.53125 311.5 197.957031 312.128906 197.964844 C 313.425781 197.976562 314.105469 198.027344 316.472656 195.542969 C 321.261719 190.515625 331.765625 184.894531 334.507812 183.214844 C 337.25 181.539062 337.6875 180.570312 339.921875 179.246094 C 342.152344 177.921875 342.652344 179.660156 343.160156 179.308594 C 343.671875 178.957031 342.839844 177.179688 341.640625 176.988281 " fill-opacity="1" fill-rule="nonzero"/></g><g fill="#000000" fill-opacity="1"><g transform="translate(110.031826, 231.120715)"><g><path d="M 7.253906 0.496094 C 8.046875 0.597656 8.84375 1.09375 9.539062 0.496094 C 10.234375 -0.0976562 10.929688 -0.597656 11.328125 -1.390625 C 11.824219 -2.484375 12.320312 -3.476562 12.71875 -4.472656 C 13.113281 -5.863281 13.808594 -7.152344 14.503906 -8.34375 C 15.597656 -10.234375 16.492188 -12.023438 16.988281 -14.007812 C 17.386719 -15.898438 18.378906 -17.585938 19.175781 -19.375 C 19.96875 -20.863281 20.367188 -22.554688 20.664062 -24.144531 C 20.863281 -25.234375 21.261719 -25.035156 21.460938 -24.144531 C 21.558594 -23.746094 21.164062 -22.75 21.558594 -22.253906 C 21.757812 -19.175781 22.054688 -15.996094 22.949219 -12.914062 C 23.546875 -10.828125 24.042969 -8.742188 25.234375 -6.855469 C 25.929688 -5.5625 26.726562 -4.371094 28.214844 -3.777344 C 29.507812 -3.277344 30.800781 -3.078125 32.191406 -2.980469 C 33.480469 -2.78125 34.476562 -3.578125 34.675781 -4.769531 C 34.675781 -5.265625 34.675781 -5.761719 34.871094 -6.160156 C 35.46875 -7.253906 35.570312 -8.34375 35.570312 -9.4375 C 35.570312 -9.738281 35.570312 -10.035156 35.667969 -10.234375 C 36.460938 -11.625 36.761719 -13.113281 37.257812 -14.605469 C 38.050781 -17.289062 39.046875 -19.871094 39.742188 -22.652344 C 40.4375 -25.929688 41.628906 -29.109375 42.226562 -32.585938 C 42.621094 -32.089844 42.324219 -32.886719 42.722656 -30.800781 L 42.921875 -28.613281 C 43.316406 -27.222656 43.019531 -25.734375 43.617188 -24.339844 L 43.617188 -23.644531 C 43.515625 -22.652344 43.617188 -21.757812 43.816406 -20.863281 C 44.210938 -19.273438 46.992188 -14.308594 48.085938 -12.023438 C 49.277344 -9.636719 50.371094 -7.351562 52.957031 -5.761719 C 55.738281 -4.171875 58.617188 -3.476562 61.796875 -4.472656 C 63.1875 -4.867188 64.480469 -5.464844 65.273438 -6.558594 L 66.566406 -8.644531 C 68.15625 -11.523438 69.449219 -14.605469 70.640625 -17.585938 C 71.234375 -19.273438 74.21875 -26.824219 74.515625 -29.605469 C 74.613281 -30.105469 74.8125 -30.800781 74.019531 -31.097656 C 73.519531 -31.296875 72.925781 -30.898438 72.527344 -29.804688 C 72.128906 -28.714844 71.234375 -26.328125 68.949219 -19.671875 C 68.15625 -17.289062 66.566406 -15.199219 65.375 -13.015625 C 64.378906 -11.226562 63.386719 -9.4375 61.898438 -7.949219 C 60.902344 -7.054688 59.113281 -6.953125 58.222656 -7.75 C 57.425781 -8.445312 56.730469 -9.4375 56.632812 -10.332031 C 56.433594 -11.625 56.132812 -12.914062 56.035156 -14.308594 C 56.035156 -16.789062 56.332031 -21.261719 56.332031 -23.148438 C 56.433594 -28.910156 55.4375 -30.402344 55.636719 -36.859375 C 55.9375 -37.753906 55.9375 -38.550781 55.835938 -39.441406 C 55.636719 -40.734375 55.4375 -42.125 55.539062 -43.417969 C 55.636719 -44.90625 55.4375 -46.296875 55.140625 -47.789062 C 54.84375 -49.082031 54.347656 -50.472656 54.347656 -51.863281 C 54.347656 -53.75 53.75 -55.4375 53.253906 -57.226562 C 52.65625 -59.613281 51.367188 -61.699219 50.570312 -64.082031 C 49.777344 -66.367188 48.484375 -68.652344 47.492188 -70.9375 C 46.199219 -73.917969 45.007812 -76.898438 43.515625 -79.878906 C 42.621094 -81.769531 41.828125 -82.164062 39.640625 -81.371094 C 39.34375 -81.269531 39.144531 -81.171875 38.847656 -80.972656 C 37.257812 -79.878906 34.375 -79.679688 33.480469 -78.289062 C 32.585938 -77 32.785156 -76.105469 34.175781 -75.308594 C 34.476562 -75.109375 34.773438 -74.914062 34.972656 -74.515625 C 35.46875 -73.421875 36.164062 -72.429688 36.5625 -71.234375 C 36.960938 -70.042969 37.355469 -68.851562 37.855469 -67.660156 C 38.550781 -65.773438 39.246094 -63.882812 39.441406 -61.898438 C 39.542969 -61.003906 39.542969 -60.109375 39.839844 -59.214844 C 40.835938 -56.53125 40.734375 -53.847656 40.4375 -51.066406 C 40.140625 -48.386719 39.542969 -45.601562 39.046875 -42.820312 C 38.847656 -41.925781 38.648438 -41.03125 38.550781 -40.140625 C 38.152344 -36.859375 37.65625 -33.582031 36.960938 -30.402344 C 36.460938 -28.316406 35.964844 -26.230469 35.867188 -24.144531 L 34.972656 -21.558594 C 34.574219 -22.554688 34.773438 -23.546875 34.476562 -24.441406 C 33.582031 -27.519531 33.183594 -30.601562 32.585938 -33.679688 C 32.089844 -36.363281 31.496094 -38.945312 30.5 -41.429688 C 30.5 -41.925781 30.300781 -42.324219 30.203125 -42.820312 L 29.308594 -45.503906 C 28.316406 -49.578125 27.519531 -53.75 27.222656 -57.921875 C 27.125 -58.917969 26.625 -59.710938 25.734375 -60.308594 C 24.839844 -60.804688 24.539062 -60.804688 23.84375 -60.207031 L 20.464844 -57.226562 C 20.070312 -56.929688 19.769531 -56.632812 19.769531 -56.132812 C 19.769531 -55.242188 19.472656 -54.347656 19.175781 -53.550781 C 18.976562 -52.558594 18.679688 -51.761719 19.574219 -50.867188 C 19.769531 -50.671875 19.769531 -50.371094 19.769531 -49.976562 C 19.871094 -49.476562 19.871094 -48.980469 19.96875 -48.484375 C 20.269531 -45.800781 20.863281 -43.21875 20.765625 -40.535156 C 20.664062 -37.65625 20.464844 -34.871094 19.871094 -32.089844 C 19.175781 -28.910156 18.480469 -25.734375 17.386719 -22.652344 C 16.492188 -20.367188 15.597656 -17.984375 14.902344 -15.597656 C 14.804688 -15.003906 14.503906 -14.40625 14.308594 -13.808594 C 12.914062 -10.730469 10.929688 -7.949219 9.4375 -4.867188 C 9.238281 -4.570312 8.941406 -4.273438 8.742188 -4.074219 C 8.34375 -3.777344 8.046875 -3.179688 7.550781 -3.378906 C 7.054688 -3.578125 6.953125 -4.074219 6.757812 -4.472656 C 6.65625 -4.96875 6.65625 -5.464844 6.757812 -5.960938 C 6.953125 -6.65625 7.550781 -7.152344 8.046875 -7.648438 C 8.84375 -8.34375 8.941406 -9.042969 8.542969 -9.738281 C 7.949219 -10.730469 6.953125 -11.027344 5.761719 -10.53125 C 4.472656 -10.035156 4.171875 -8.941406 4.074219 -7.847656 C 3.675781 -4.570312 4.769531 -1.789062 7.253906 0.496094 Z M 7.253906 0.496094 "/></g></g></g><g fill="#000000" fill-opacity="1"><g transform="translate(180.669793, 231.120715)"><g><path d="M 23.546875 2.78125 C 25.433594 2.980469 26.328125 2.582031 26.726562 0.597656 C 26.824219 0.296875 26.824219 0 26.824219 -0.496094 C 27.820312 -1.988281 28.414062 -3.675781 28.714844 -5.5625 C 28.714844 -6.65625 29.011719 -7.75 29.109375 -9.042969 C 29.410156 -10.730469 30.300781 -12.417969 29.210938 -14.007812 C 29.109375 -14.007812 29.011719 -14.109375 28.910156 -14.109375 C 29.109375 -16.394531 29.410156 -20.863281 30.105469 -22.949219 C 30.402344 -24.042969 30.601562 -25.035156 30.699219 -26.128906 C 30.699219 -28.019531 31 -29.90625 31.097656 -31.792969 C 31.097656 -34.675781 32.191406 -37.65625 31.097656 -40.535156 L 31.097656 -40.835938 C 31.097656 -42.226562 31.394531 -43.617188 31.695312 -44.808594 C 31.792969 -45.007812 31.695312 -45.304688 31.695312 -45.503906 C 31.394531 -47.886719 32.089844 -50.273438 31.394531 -52.558594 C 31.296875 -53.054688 31.394531 -53.550781 31.394531 -53.949219 C 31.695312 -55.835938 31.195312 -57.625 31.097656 -59.613281 C 31 -61.300781 31 -61.898438 30.898438 -62.59375 C 30.898438 -63.289062 31.296875 -63.984375 32.089844 -64.082031 C 34.773438 -64.378906 37.457031 -65.375 40.4375 -65.175781 C 43.417969 -64.878906 45.800781 -61.996094 46.496094 -59.113281 C 47.589844 -56.035156 47.191406 -52.855469 46.398438 -49.875 C 46 -47.886719 45.503906 -45.902344 44.011719 -44.210938 C 42.722656 -42.621094 41.726562 -40.933594 40.535156 -39.34375 C 39.640625 -38.152344 38.449219 -37.15625 37.058594 -36.460938 C 35.867188 -35.964844 34.476562 -35.765625 33.085938 -35.46875 C 32.191406 -35.171875 32.089844 -34.871094 32.585938 -34.375 C 34.175781 -31.992188 36.265625 -30.402344 39.34375 -30.402344 C 42.324219 -30.300781 50.371094 -32.886719 52.0625 -34.574219 C 53.152344 -35.765625 54.84375 -37.355469 56.332031 -38.25 C 56.433594 -38.25 56.53125 -38.449219 56.53125 -38.550781 C 57.527344 -40.535156 58.222656 -42.125 58.222656 -44.511719 C 58.222656 -44.707031 58.417969 -44.90625 58.519531 -45.105469 C 59.613281 -47.09375 60.007812 -48.882812 59.113281 -50.96875 C 58.917969 -51.464844 59.8125 -51.960938 59.710938 -52.457031 C 59.015625 -55.339844 58.320312 -58.121094 56.332031 -60.40625 C 55.4375 -61.398438 54.542969 -62.097656 53.949219 -63.1875 C 53.054688 -64.28125 46.695312 -68.453125 45.503906 -68.949219 C 43.617188 -69.347656 41.726562 -69.347656 39.839844 -69.648438 C 37.15625 -69.25 34.476562 -69.25 31.890625 -68.554688 C 30.105469 -67.957031 29.605469 -68.355469 29.210938 -70.34375 C 29.109375 -71.234375 28.8125 -71.832031 28.019531 -72.230469 C 26.824219 -73.222656 25.433594 -73.71875 24.144531 -74.414062 C 22.355469 -75.011719 21.359375 -75.507812 19.472656 -76.003906 C 17.785156 -76.601562 20.070312 -77.199219 18.28125 -77.097656 C 16.789062 -77 15.699219 -76.105469 14.605469 -75.210938 C 14.109375 -74.714844 14.109375 -73.917969 13.910156 -73.421875 C 13.808594 -72.628906 14.605469 -73.023438 14.804688 -72.824219 C 15.199219 -72.527344 15.300781 -72.230469 15.5 -71.933594 C 15.597656 -71.039062 15.796875 -70.242188 15.898438 -69.347656 C 15.996094 -66.964844 15.796875 -65.671875 15.796875 -63.1875 C 15.796875 -62.394531 16.195312 -61.898438 15.300781 -61.203125 C 15.003906 -61.203125 14.308594 -60.605469 13.910156 -60.507812 C 11.824219 -59.214844 9.539062 -57.328125 7.648438 -55.636719 C 5.664062 -54.046875 4.273438 -52.160156 2.78125 -50.273438 L 2.484375 -49.875 C 2.285156 -49.675781 2.285156 -49.277344 2.1875 -48.980469 C 0.894531 -47.292969 0.792969 -45.105469 1.292969 -43.121094 C 1.390625 -42.621094 1.390625 -42.125 1.589844 -41.628906 C 1.789062 -39.246094 2.683594 -37.355469 5.066406 -36.660156 C 8.742188 -35.171875 11.824219 -32.886719 14.40625 -30.003906 C 15.300781 -29.011719 15.996094 -28.019531 16.09375 -26.625 C 16.195312 -25.433594 16.394531 -24.441406 16.492188 -23.347656 C 17.585938 -16.988281 16.691406 -7.949219 18.480469 -1.789062 C 18.679688 -0.992188 16.59375 -0.199219 17.1875 0.199219 C 19.074219 1.589844 21.164062 2.582031 23.546875 2.78125 Z M 13.511719 -38.746094 C 12.914062 -39.34375 12.21875 -39.34375 11.625 -39.640625 C 9.738281 -40.238281 8.246094 -41.230469 6.855469 -42.523438 C 5.960938 -43.417969 5.664062 -44.210938 5.664062 -45.503906 C 5.5625 -47.886719 6.757812 -49.777344 8.34375 -51.367188 C 9.636719 -52.65625 10.53125 -54.148438 12.21875 -55.140625 C 12.71875 -55.4375 13.613281 -56.433594 15.199219 -57.328125 C 15.796875 -57.027344 15.597656 -56.53125 15.5 -56.132812 L 15.597656 -52.457031 C 15.5 -50.570312 15.597656 -48.78125 15.898438 -46.992188 C 16.09375 -45.800781 15.699219 -44.511719 15.699219 -43.121094 C 15.699219 -42.027344 15.597656 -40.835938 15.597656 -39.640625 C 15.5 -38.050781 14.902344 -37.953125 13.511719 -38.746094 Z M 13.511719 -38.746094 "/></g></g></g><g fill="#000000" fill-opacity="1"><g transform="translate(242.366252, 231.120715)"><g><path d="M 34.277344 0.992188 C 35.269531 0.695312 36.265625 0.695312 37.058594 0.695312 C 41.925781 0.496094 41.230469 -8.542969 41.132812 -9.738281 C 41.230469 -12.21875 42.125 -14.109375 42.226562 -16.292969 C 42.324219 -18.777344 43.21875 -21.164062 43.417969 -23.25 C 43.617188 -25.234375 44.011719 -27.320312 44.609375 -29.210938 C 45.40625 -31.890625 46 -34.675781 46.398438 -37.65625 C 46.597656 -39.640625 46.894531 -41.53125 47.390625 -43.417969 C 47.988281 -45.902344 48.882812 -47.988281 48.882812 -50.171875 C 48.78125 -51.664062 49.378906 -52.855469 49.476562 -53.75 C 49.777344 -55.140625 50.570312 -55.9375 51.960938 -56.234375 C 52.160156 -56.234375 53.652344 -56.730469 54.941406 -57.425781 C 56.929688 -58.519531 55.636719 -60.605469 54.941406 -60.109375 C 54.542969 -59.8125 53.550781 -59.414062 53.453125 -59.214844 C 51.265625 -58.519531 50.472656 -59.015625 50.769531 -61.101562 C 50.867188 -62.59375 50.867188 -63.882812 50.570312 -65.273438 C 50.570312 -66.167969 50.171875 -67.164062 50.074219 -68.355469 C 50.273438 -69.648438 49.777344 -70.738281 49.082031 -72.03125 C 48.085938 -73.71875 46.597656 -75.210938 45.40625 -77.296875 C 45.207031 -77.496094 45.007812 -77.59375 44.808594 -77.695312 C 42.523438 -78.289062 40.636719 -78.089844 39.34375 -77 C 34.078125 -72.527344 35.867188 -66.367188 35.964844 -65.273438 C 36.066406 -64.480469 36.265625 -63.984375 36.660156 -63.585938 C 38.550781 -61.003906 40.4375 -58.816406 43.21875 -57.527344 C 44.609375 -56.828125 45.304688 -55.738281 45.207031 -54.347656 C 44.511719 -51.265625 43.914062 -48.085938 43.617188 -45.007812 L 39.839844 -27.421875 C 39.742188 -27.320312 37.15625 -14.308594 35.070312 -16.09375 C 33.679688 -17.289062 34.375 -20.863281 33.679688 -24.738281 C 32.886719 -29.109375 28.714844 -41.53125 27.222656 -45.007812 C 26.328125 -47.789062 26.03125 -51.464844 25.035156 -54.246094 L 24.738281 -55.4375 C 24.640625 -55.738281 24.339844 -56.234375 24.339844 -56.828125 L 24.042969 -57.921875 C 23.945312 -58.121094 23.050781 -60.007812 22.355469 -60.507812 C 21.359375 -60.804688 20.765625 -61.5 19.96875 -61.699219 L 19.273438 -61.996094 C 15.996094 -63.386719 15.597656 -62.59375 13.113281 -61.898438 C 8.445312 -60.605469 7.351562 -58.222656 6.757812 -55.539062 C 5.761719 -51.367188 3.777344 -47.292969 3.777344 -42.027344 C 3.777344 -39.839844 4.96875 -38.25 5.066406 -38.050781 C 5.761719 -37.257812 6.558594 -36.859375 6.757812 -36.761719 L 9.4375 -35.867188 C 9.933594 -35.667969 10.132812 -35.964844 10.132812 -35.964844 C 13.015625 -35.964844 13.113281 -38.648438 14.605469 -37.953125 C 15.5 -37.257812 16.394531 -32.390625 17.289062 -28.910156 C 18.679688 -24.042969 19.574219 -22.15625 20.566406 -17.289062 C 21.460938 -12.71875 23.25 -8.445312 26.230469 -3.578125 C 28.613281 0.398438 29.605469 1.6875 34.277344 0.992188 Z M 45.105469 -60.308594 C 39.34375 -62.988281 37.257812 -66.765625 39.046875 -71.734375 C 39.144531 -71.632812 38.945312 -72.527344 40.238281 -73.023438 C 41.230469 -73.125 41.53125 -72.925781 42.226562 -72.03125 C 42.421875 -71.734375 42.722656 -71.335938 42.921875 -70.9375 C 43.914062 -68.652344 44.808594 -66.46875 45.601562 -64.082031 C 46.101562 -62.988281 46 -61.898438 45.105469 -60.308594 Z M 11.027344 -40.039062 C 8.742188 -40.835938 7.351562 -42.324219 7.152344 -44.707031 C 7.054688 -46.894531 7.253906 -48.386719 7.847656 -49.777344 C 8.148438 -50.769531 8.246094 -51.5625 8.34375 -52.457031 C 8.34375 -54.046875 9.238281 -55.4375 10.035156 -56.828125 C 10.53125 -57.425781 11.425781 -57.921875 12.617188 -57.722656 C 13.3125 -56.035156 13.214844 -54.246094 13.3125 -52.558594 C 13.910156 -46.199219 14.605469 -41.132812 11.523438 -40.140625 Z M 11.027344 -40.039062 "/></g></g></g></svg>